# xmcd
#
# Track frame offsets: 
#        150
#        81997
#        147195
#        244002
#
# Disc length: 4312 seconds
#
# Revision: 12
# Processed by: cddbd v1.5.2PL0 Copyright (c) Steve Scherf et al.
# Submitted via: ExactAudioCopy v1.0b3
#
DISCID=2e10d604
DTITLE=Nigel Kennedy, Simon Rattle, City of Birmingham Symphony Orches
DTITLE=tra - Elgar - Violin Concerto, Vaughan Williams - The Lark Asce
DTITLE=nding
DYEAR=1997
DGENRE=Classical
TTITLE0=Edward Elgar - Violin Concerto in B minor, op.61 - 1. Allegro
TTITLE1=Edward Elgar - Violin Concerto in B minor, op.61 - 2. Andante
TTITLE2=Edward Elgar - Violin Concerto in B minor, op.61 - 3. Allegro 
TTITLE2=molto - Cadenza - Allegro molto
TTITLE3=Ralph Vaughan-Williams - The Lark Ascending - Romance for Viol
TTITLE3=in and Orchestra
EXTD=Edward Elgar, Ralph Vaughan Williams, Kennedy, Rattle YEAR: 1997
EXTT0=
EXTT1=
EXTT2=
EXTT3=
PLAYORDER=
